# xmcd CD database file
#
# Track frame offsets:
#	150
#	21690
#	50199
#	73729
#	96495
#	117751
#	141136
#	163595
#	191502
#	204704
#	227911
#	252582
#
# Disc length: 3806 seconds
#
# Revision: 0
# Processed by: cddbd v1.5.2PL0 Copyright (c) Steve Scherf et al.
# Submitted via: CDex 1.51
#
DISCID=be0edc0c
DTITLE=Gino Paoli - Milestones
DYEAR=2007
DGENRE=Jazz
TTITLE0=01 Time after time
TTITLE1=02 Sapore di sale
TTITLE2=03 Vivere ancora
TTITLE3=04 I fall in love too easily
TTITLE4=05 La gatta
TTITLE5=06 Che cosa c'è
TTITLE6=07 Una lunga storia d'amore
TTITLE7=08 Stardust
TTITLE8=09 Quando
TTITLE9=10 Sassi
TTITLE10=11 Il cielo in una stanza
TTITLE11=12 Senza fine
EXTD=YEAR: 2007
EXTT0=
EXTT1=
EXTT2=
EXTT3=
EXTT4=
EXTT5=
EXTT6=
EXTT7=
EXTT8=
EXTT9=
EXTT10=
EXTT11=
PLAYORDER=
